<svg width="370" height="452" viewBox="0 0 370 452" fill="none" xmlns="http://www.w3.org/2000/svg"><path d="M9.02601 165.884c-.27708-20.486 2.24889-40.742 6.05069-60.86 2.5775-13.6208 6.7208-26.7887 14.4855-38.7481 9.7301-14.9808 23.771-25.381 40.0028-33.5513 16.9406-8.5026 35.009-13.9354 53.741-17.7607 22.869-4.6713 46.002-6.41172 69.315-5.86784 31.723.7433 62.698 5.43884 92.243 16.79384 14.453 5.5596 27.985 12.6301 39.674 22.5105 14.498 12.2796 23.197 27.7983 27.572 45.4019 7.527 30.0977 10.272 61.0717 8.145 91.9217-1.355 19.571-4.875 38.956-10.503 57.845-4.813 16.141-10.658 32.028-15.323 48.193-2.101 7.307-2.713 15.03-3.506 22.608-1.224 11.693-1.417 23.507-3.131 35.128-3.319 22.426-14.66 41.093-32.064 56.679-14.018 12.539-31.077 21.693-49.707 26.674-11.155 3.021-22.554 5.747-33.991 7.403-14.865 2.055-29.943 2.388-44.894.991-17.9-1.559-35.324-4.944-52.091-11.077-23.4746-8.6-42.8252-22.209-57.0981-41.849-7.6487-10.491-13.0292-22.027-14.8979-34.663-1.7785-12.02-3.2219-24.136-3.776-36.259-.5757-12.849-3.2241-25.543-7.855-37.648-6.5597-17.344-11.5278-35.111-15.5487-53.137-4.472-20.045-7.16548-40.229-6.84329-60.728Z" fill="#3D7D4B" stroke="#3ACD5B" stroke-width="18" stroke-miterlimit="10"/></svg>