<?xml version="1.0" encoding="utf-8"?><svg xmlns="http://www.w3.org/2000/svg" width="800" height="800" fill="none" viewBox="0 0 24 24"><path fill="#212121" d="M3 5.3C3 4 4 3 5.3 3h13.4C20 3 21 4 21 5.3V12l-1.5-.7v-6c0-.5-.3-.8-.8-.8H5.3c-.5 0-.8.3-.8.8v13.4c0 .5.3.8.8.8h6L12 21H5.2C4 21 3 20 3 18.7V5.3Z"/><path fill="#212121" d="M10.8 7.7c.3.3.3.8 0 1l-2 2c-.3.4-.8.4-1 0l-1-1a.8.8 0 0 1 1-1l.5.5 1.4-1.5c.3-.3.8-.3 1 0ZM10.8 13.2c.3.3.3.8 0 1l-2 2c-.3.4-.8.4-1 0l-1-1a.7.7 0 1 1 1-1l.5.5 1.4-1.5c.3-.3.8-.3 1 0ZM17.5 12a5.5 5.5 0 1 1 0 11 5.5 5.5 0 0 1 0-11Zm.5 8.5V18h2.5a.5.5 0 1 0 0-1H18v-2.5a.5.5 0 1 0-1 0V17h-2.5a.5.5 0 0 0 0 1H17v2.5a.5.5 0 1 0 1 0ZM13.3 8.5a.8.8 0 0 0 0 1.5h3.4a.8.8 0 0 0 0-1.5h-3.4Z"/></svg>